<svg xmlns="http://www.w3.org/2000/svg" viewBox="0 0 145.7 89.41"><defs><style>.cls-1{fill:#e7af3e;}</style></defs><g id="Vrstva_2" data-name="Vrstva 2"><g id="Vrstva_1-2" data-name="Vrstva 1"><path class="cls-1" d="M78.08,35l-4.7,3.45,18.2,24.29L96.87,61,79.4,39c5.95-3.42,8.63-9.75,4.4-14.46H94.6c3.15.13,5.28,3.17,4.54,6.72a6.4,6.4,0,0,1-2.28,3.93l-4.69,3.66L106,56.15l3.44-3.38-11.3-14c4.79-2.47,6.23-6.38,5.72-9.94a9.57,9.57,0,0,0-8.58-8.26H60.47V35H40.14V20.34H34.85V55.12L40,58.42V38.83H60.24V65l5.58.59V24.3h7.75a10,10,0,0,1,2.26.13A5.93,5.93,0,0,1,78.08,35"/><polygon class="cls-1" points="89.67 6.24 90.77 2.79 92.09 6.31 95.32 6.31 92.83 8.59 94 12.18 90.85 10.13 87.99 12.18 88.94 8.51 86.15 6.24 89.67 6.24"/><polygon class="cls-1" points="77.56 0 76.46 3.45 72.94 3.45 75.73 5.72 74.7 9.39 77.64 7.41 80.79 9.47 79.62 5.8 82.11 3.52 78.89 3.52 77.56 0"/><polygon class="cls-1" points="62.96 3.52 59.44 3.52 62.23 5.8 61.27 9.47 64.13 7.41 67.29 9.47 66.12 5.87 68.61 3.6 65.38 3.6 64.06 0.07 62.96 3.52"/><polygon class="cls-1" points="49.75 6.16 50.85 2.71 52.25 6.16 55.4 6.16 52.98 8.51 54.08 12.11 50.92 10.05 48.06 12.11 49.02 8.44 46.23 6.16 49.75 6.16"/><path class="cls-1" d="M9.5,78.27v11H7.92V84.39H1.58v4.92H0v-11H1.58V83H7.92V78.27Z"/><path class="cls-1" d="M13.93,88.86a4,4,0,0,1-1.55-1.53,4.6,4.6,0,0,1,0-4.4,3.88,3.88,0,0,1,1.55-1.51,4.51,4.51,0,0,1,2.24-.55,4.44,4.44,0,0,1,2.23.55A3.88,3.88,0,0,1,20,82.93a4.6,4.6,0,0,1,0,4.4,4,4,0,0,1-1.55,1.53,4.55,4.55,0,0,1-2.23.55A4.62,4.62,0,0,1,13.93,88.86Zm3.69-1.15a2.71,2.71,0,0,0,1-1,3.47,3.47,0,0,0,0-3.08,2.68,2.68,0,0,0-1-1,2.91,2.91,0,0,0-1.45-.36,2.85,2.85,0,0,0-1.44.36,2.57,2.57,0,0,0-1,1,3.39,3.39,0,0,0,0,3.08,2.59,2.59,0,0,0,1,1,2.76,2.76,0,0,0,1.44.37A2.82,2.82,0,0,0,17.62,87.71Z"/><path class="cls-1" d="M27.31,88.82a2.22,2.22,0,0,1-.82.44,3.43,3.43,0,0,1-1,.15,2.72,2.72,0,0,1-2-.68,2.6,2.6,0,0,1-.69-1.94V82.2H21.41V81h1.42V79.12h1.51V81h2.4V82.2h-2.4v4.53a1.49,1.49,0,0,0,.34,1,1.28,1.28,0,0,0,1,.36,1.85,1.85,0,0,0,1.19-.39Z"/><path class="cls-1" d="M36.38,85.64H29.6a2.62,2.62,0,0,0,1,1.77,3.15,3.15,0,0,0,2.06.67,3.07,3.07,0,0,0,2.41-1l.84,1a3.69,3.69,0,0,1-1.41,1,5,5,0,0,1-1.89.35,4.85,4.85,0,0,1-2.35-.55,4,4,0,0,1-1.59-1.52,4.4,4.4,0,0,1-.56-2.21,4.45,4.45,0,0,1,.55-2.19,3.85,3.85,0,0,1,1.5-1.52,4.46,4.46,0,0,1,4.29,0,3.91,3.91,0,0,1,1.47,1.52,4.66,4.66,0,0,1,.52,2.24A4.54,4.54,0,0,1,36.38,85.64Zm-5.92-2.83a2.67,2.67,0,0,0-.86,1.74H35a2.69,2.69,0,0,0-.86-1.73,2.57,2.57,0,0,0-1.82-.67A2.63,2.63,0,0,0,30.46,82.81Z"/><path class="cls-1" d="M38.51,77.61H40v11.7H38.51Z"/><path class="cls-1" d="M54.76,89.31l-2.38-3.39-.69,0H49v3.36H47.38v-11h4.31a5.12,5.12,0,0,1,3.37,1,3.5,3.5,0,0,1,1.23,2.83,3.71,3.71,0,0,1-.63,2.18,3.59,3.59,0,0,1-1.8,1.31l2.62,3.7ZM53.93,84a2.29,2.29,0,0,0,.79-1.85,2.25,2.25,0,0,0-.79-1.84,3.55,3.55,0,0,0-2.29-.64H49v5h2.68A3.55,3.55,0,0,0,53.93,84Z"/><path class="cls-1" d="M66.15,85.64H59.37a2.62,2.62,0,0,0,1,1.77,3.15,3.15,0,0,0,2.06.67,3.07,3.07,0,0,0,2.41-1l.84,1a3.69,3.69,0,0,1-1.41,1,5,5,0,0,1-1.89.35A4.85,4.85,0,0,1,60,88.86a4,4,0,0,1-1.59-1.52,4.4,4.4,0,0,1-.56-2.21,4.45,4.45,0,0,1,.55-2.19,3.85,3.85,0,0,1,1.5-1.52,4.46,4.46,0,0,1,4.29,0,3.91,3.91,0,0,1,1.47,1.52,4.66,4.66,0,0,1,.53,2.24C66.19,85.3,66.17,85.45,66.15,85.64Zm-5.92-2.83a2.67,2.67,0,0,0-.86,1.74h5.36a2.69,2.69,0,0,0-.86-1.73,2.56,2.56,0,0,0-1.82-.67A2.63,2.63,0,0,0,60.23,82.81Z"/><path class="cls-1" d="M68.71,89.13a4.25,4.25,0,0,1-1.48-.7l.63-1.2a4.63,4.63,0,0,0,1.34.63,5.48,5.48,0,0,0,1.59.24c1.33,0,2-.38,2-1.14a.74.74,0,0,0-.27-.6,1.82,1.82,0,0,0-.67-.32c-.27-.07-.65-.14-1.14-.23a10.45,10.45,0,0,1-1.65-.36,2.56,2.56,0,0,1-1.1-.7,1.93,1.93,0,0,1-.45-1.37,2.14,2.14,0,0,1,.94-1.82A4.23,4.23,0,0,1,71,80.87a6.76,6.76,0,0,1,1.67.21,4.41,4.41,0,0,1,1.38.55l-.65,1.2A4.35,4.35,0,0,0,71,82.17a2.8,2.8,0,0,0-1.47.31,1,1,0,0,0-.51.84.81.81,0,0,0,.29.65,1.83,1.83,0,0,0,.7.34c.28.08.67.16,1.18.26a10.9,10.9,0,0,1,1.63.37,2.37,2.37,0,0,1,1.06.67,1.82,1.82,0,0,1,.45,1.32,2.11,2.11,0,0,1-1,1.81,4.58,4.58,0,0,1-2.65.67A6.8,6.8,0,0,1,68.71,89.13Z"/><path class="cls-1" d="M77.53,88.86A4,4,0,0,1,76,87.33a4.53,4.53,0,0,1,0-4.4,3.88,3.88,0,0,1,1.55-1.51,4.82,4.82,0,0,1,4.47,0,4,4,0,0,1,1.55,1.51,4.6,4.6,0,0,1,0,4.4A4.07,4.07,0,0,1,82,88.86a4.82,4.82,0,0,1-4.47,0Zm3.68-1.15a2.66,2.66,0,0,0,1-1,3.47,3.47,0,0,0,0-3.08,2.63,2.63,0,0,0-1-1,3.06,3.06,0,0,0-2.88,0,2.57,2.57,0,0,0-1,1,3.31,3.31,0,0,0,0,3.08,2.59,2.59,0,0,0,1,1,3,3,0,0,0,2.88,0Z"/><path class="cls-1" d="M88.83,81.25a4.24,4.24,0,0,1,1.87-.38v1.47l-.34,0a2.57,2.57,0,0,0-1.94.74,2.93,2.93,0,0,0-.7,2.09v4.16H86.21V81h1.45v1.41A2.52,2.52,0,0,1,88.83,81.25Z"/><path class="cls-1" d="M97.62,88.82a2.35,2.35,0,0,1-.83.44,3.38,3.38,0,0,1-1,.15,2.67,2.67,0,0,1-2-.68,2.56,2.56,0,0,1-.7-1.94V82.2H91.71V81h1.42V79.12h1.52V81h2.4V82.2h-2.4v4.53a1.45,1.45,0,0,0,.34,1,1.26,1.26,0,0,0,1,.36,1.82,1.82,0,0,0,1.18-.39Z"/><path class="cls-1" d="M111.29,89.31l-2.38-3.39-.69,0h-2.73v3.36h-1.58v-11h4.31a5.12,5.12,0,0,1,3.37,1,3.5,3.5,0,0,1,1.23,2.83,3.71,3.71,0,0,1-.63,2.18,3.59,3.59,0,0,1-1.8,1.31l2.62,3.7ZM110.46,84a2.29,2.29,0,0,0,.79-1.85,2.25,2.25,0,0,0-.79-1.84,3.55,3.55,0,0,0-2.29-.64h-2.68v5h2.68A3.55,3.55,0,0,0,110.46,84Z"/><path class="cls-1" d="M122.68,85.64H115.9a2.66,2.66,0,0,0,1,1.77,3.15,3.15,0,0,0,2.06.67,3.07,3.07,0,0,0,2.41-1l.84,1a3.69,3.69,0,0,1-1.41,1,5,5,0,0,1-1.89.35,4.85,4.85,0,0,1-2.35-.55A3.86,3.86,0,0,1,115,87.34a4.31,4.31,0,0,1-.57-2.21,4.45,4.45,0,0,1,.55-2.19,3.85,3.85,0,0,1,1.5-1.52,4.46,4.46,0,0,1,4.29,0,3.91,3.91,0,0,1,1.47,1.52,4.66,4.66,0,0,1,.53,2.24C122.72,85.3,122.7,85.45,122.68,85.64Zm-5.92-2.83a2.67,2.67,0,0,0-.86,1.74h5.36a2.69,2.69,0,0,0-.86-1.73,2.56,2.56,0,0,0-1.82-.67A2.63,2.63,0,0,0,116.76,82.81Z"/><path class="cls-1" d="M124.81,77.61h1.52v11.7h-1.52Z"/><path class="cls-1" d="M134.92,81.72a3.29,3.29,0,0,1,.92,2.55v5h-1.43v-1.1a2.5,2.5,0,0,1-1.08.89,4.08,4.08,0,0,1-1.67.31,3.53,3.53,0,0,1-2.25-.68,2.18,2.18,0,0,1-.84-1.78,2.22,2.22,0,0,1,.8-1.78,4,4,0,0,1,2.56-.67h2.4v-.3a1.94,1.94,0,0,0-.57-1.5,2.44,2.44,0,0,0-1.67-.52,4.21,4.21,0,0,0-1.45.25,3.61,3.61,0,0,0-1.2.65l-.63-1.14a4.58,4.58,0,0,1,1.54-.79,6.3,6.3,0,0,1,1.91-.28A3.83,3.83,0,0,1,134.92,81.72Zm-1.51,6.13a2.19,2.19,0,0,0,.92-1.09V85.59H132q-1.92,0-1.92,1.29a1.17,1.17,0,0,0,.49,1,2.23,2.23,0,0,0,1.35.36A2.79,2.79,0,0,0,133.41,87.85Z"/><path class="cls-1" d="M144,89.31l-2.41-3.2-2.45,3.2h-1.68L140.73,85,137.59,81h1.69l2.31,3,2.28-3h1.66L142.38,85l3.32,4.27Z"/></g></g></svg>